<svg viewBox="0 0 512 512" xmlns="http://www.w3.org/2000/svg"><g transform="translate(0 -540.36)"><path d="m471.95 793.41c0 120.9-98.01 218.9-218.9 218.9-120.9 0-218.9-98.01-218.9-218.9 0-120.9 98.01-218.9 218.9-218.9 120.9 0 218.9 98.01 218.9 218.9" fill="#ef6a47" fill-rule="evenodd"/><path d="m202.97 115.22c-5.205 0-9.438 4.204-9.438 9.406 0 2.926 1.345 5.553 3.438 7.281.313.348.639.702 1 1 .313.348.608.702.969 1 .314.35.637.7 1 1 .314.35.637.669 1 .969.261.291.518.587.813.844.315.369.664.715 1.031 1.031.35.407.742.783 1.156 1.125.313.348.639.702 1 1 .313.348.608.702.969 1 .314.35.637.669 1 .969.261.291.518.587.813.844.315.369.664.715 1.031 1.031.307.356.644.693 1 1v75.75c-.03.236-.074.48-.094.719l-57.53 150.81c-.408 1.071-.625 2.199-.625 3.344 0 6.16 2.635 11.712 6.813 15.625.323.345.655.677 1 1 .343.366.695.721 1.063 1.063.274.289.554.57.844.844.36.387.738.765 1.125 1.125.304.322.614.635.938.938.323.345.655.677 1 1 .323.345.655.677 1 1 .343.366.695.721 1.063 1.063.299.316.62.609.938.906.298.318.59.638.906.938.341.368.696.72 1.063 1.063.323.345.655.677 1 1 .323.345.655.677 1 1 .343.366.695.721 1.063 1.063.299.316.62.609.938.906.298.318.59.638.906.938.341.368.696.72 1.063 1.063.323.345.655.677 1 1 .323.345.655.677 1 1 .303.323.616.633.938.938.382.411.775.807 1.188 1.188.255.267.513.528.781.781.341.368.696.72 1.063 1.063.323.345.655.677 1 1 .323.345.655.677 1 1 .323.345.655.677 1 1 .343.366.695.721 1.063 1.063.253.268.514.527.781.781.38.413.777.805 1.188 1.188.304.322.614.635.938.938.323.345.655.677 1 1 .323.345.655.677 1 1 .343.366.695.721 1.063 1.063.299.316.62.609.938.906.298.318.59.638.906.938.341.368.696.72 1.063 1.063.323.345.655.677 1 1 .323.345.655.677 1 1 .343.366.695.721 1.063 1.063.299.316.62.609.938.906.298.318.59.638.906.938.341.368.696.72 1.063 1.063.323.345.655.677 1 1 .323.345.655.677 1 1 .323.345.655.677 1 1 .343.366.695.721 1.063 1.063.274.289.554.57.844.844.36.387.738.765 1.125 1.125.304.322.614.635.938.938.323.345.655.677 1 1 .323.345.655.677 1 1 .343.366.695.721 1.063 1.063.299.316.62.609.938.906.298.318.59.638.906.938.341.368.696.72 1.063 1.063.323.345.655.677 1 1 .323.345.655.677 1 1 .343.366.695.721 1.063 1.063.299.316.62.609.938.906.298.318.59.638.906.938.341.368.696.72 1.063 1.063.323.345.655.677 1 1 .323.345.655.677 1 1 .303.323.616.633.938.938.382.411.775.807 1.188 1.188.255.267.513.528.781.781.341.368.696.72 1.063 1.063.323.345.655.677 1 1 .323.345.655.677 1 1 .323.345.655.677 1 1 .343.366.695.721 1.063 1.063.253.268.514.527.781.781.38.413.777.805 1.188 1.188.304.322.614.635.938.938.323.345.655.677 1 1 .323.345.655.677 1 1 .343.366.695.721 1.063 1.063.299.316.62.609.938.906.298.318.59.638.906.938.341.368.696.72 1.063 1.063.293.312.596.612.906.906 4.704.302 9.438.5 14.219.5 113.59 0 206.97-86.52 217.84-197.25-.347-.401-.717-.788-1.125-1.125-.226-.252-.467-.493-.719-.719-.043-.053-.081-.105-.125-.156-.049-.042-.106-.084-.156-.125-.226-.252-.467-.493-.719-.719-.043-.053-.081-.105-.125-.156-.049-.042-.106-.084-.156-.125-.224-.249-.438-.495-.688-.719-.042-.051-.082-.106-.125-.156-.05-.043-.105-.083-.156-.125-.224-.249-.47-.463-.719-.688-.041-.05-.083-.107-.125-.156-.051-.044-.104-.082-.156-.125-.226-.252-.467-.492-.719-.719-.041-.05-.083-.107-.125-.156-.051-.044-.104-.082-.156-.125-.226-.252-.467-.492-.719-.719-.384-.465-.816-.897-1.281-1.281-.226-.252-.467-.493-.719-.719-.043-.053-.081-.105-.125-.156-.049-.042-.106-.084-.156-.125-.224-.249-.438-.495-.688-.719-.042-.051-.082-.106-.125-.156-.05-.043-.105-.083-.156-.125-.314-.35-.637-.7-1-1-.221-.246-.473-.466-.719-.688-.041-.05-.083-.107-.125-.156-.051-.044-.104-.082-.156-.125-.226-.252-.467-.492-.719-.719-.384-.465-.816-.897-1.281-1.281-.226-.252-.467-.493-.719-.719-.043-.053-.081-.105-.125-.156-.049-.042-.106-.084-.156-.125-.224-.249-.438-.495-.688-.719-.042-.051-.082-.106-.125-.156-.05-.043-.105-.083-.156-.125-.226-.252-.467-.493-.719-.719-.042-.051-.082-.106-.125-.156-.05-.043-.105-.083-.156-.125-.224-.249-.47-.463-.719-.688-.041-.05-.083-.107-.125-.156-.051-.044-.104-.082-.156-.125-.226-.252-.467-.492-.719-.719-.384-.465-.816-.897-1.281-1.281-.226-.252-.467-.493-.719-.719-.043-.053-.081-.105-.125-.156-.049-.042-.106-.084-.156-.125-.226-.252-.467-.493-.719-.719-.043-.053-.081-.105-.125-.156-.049-.042-.106-.084-.156-.125-.224-.249-.438-.495-.688-.719-.042-.051-.082-.106-.125-.156-.05-.043-.105-.083-.156-.125-.224-.249-.47-.463-.719-.688-.041-.05-.083-.107-.125-.156-.051-.044-.104-.082-.156-.125-.226-.252-.467-.492-.719-.719-.041-.05-.083-.107-.125-.156-.051-.044-.104-.082-.156-.125-.226-.252-.467-.492-.719-.719-.384-.465-.816-.897-1.281-1.281-.226-.252-.467-.493-.719-.719-.043-.053-.081-.105-.125-.156-.049-.042-.106-.084-.156-.125-.224-.249-.438-.495-.688-.719-.042-.051-.082-.106-.125-.156-.05-.043-.105-.083-.156-.125-.224-.249-.47-.463-.719-.688-.041-.05-.083-.107-.125-.156-.051-.044-.104-.082-.156-.125-.226-.252-.467-.492-.719-.719-.041-.05-.083-.107-.125-.156-.051-.044-.104-.082-.156-.125-.226-.252-.467-.492-.719-.719-.384-.465-.816-.897-1.281-1.281-.226-.252-.467-.493-.719-.719-.043-.053-.081-.105-.125-.156-.049-.042-.106-.084-.156-.125-.224-.249-.438-.495-.688-.719-.042-.051-.082-.106-.125-.156-.05-.043-.105-.083-.156-.125-.226-.252-.467-.493-.719-.719-.042-.051-.082-.106-.125-.156-.05-.043-.105-.083-.156-.125-.224-.249-.47-.463-.719-.688-.041-.05-.083-.107-.125-.156-.051-.044-.104-.082-.156-.125-.226-.252-.467-.492-.719-.719-.384-.465-.816-.897-1.281-1.281-.226-.252-.467-.493-.719-.719-.043-.053-.081-.105-.125-.156-.049-.042-.106-.084-.156-.125-.226-.252-.467-.493-.719-.719-.043-.053-.081-.105-.125-.156-.049-.042-.106-.084-.156-.125-.224-.249-.438-.495-.688-.719-.042-.051-.082-.106-.125-.156-.05-.043-.105-.083-.156-.125-.224-.249-.47-.463-.719-.688-.041-.05-.083-.107-.125-.156-.051-.044-.104-.082-.156-.125-.226-.252-.467-.492-.719-.719-.384-.465-.816-.897-1.281-1.281-.226-.252-.467-.493-.719-.719-.043-.053-.081-.105-.125-.156-.049-.042-.106-.084-.156-.125-.226-.252-.467-.493-.719-.719-.043-.053-.081-.105-.125-.156-.049-.042-.106-.084-.156-.125-.224-.249-.438-.495-.688-.719-.042-.051-.082-.106-.125-.156-.05-.043-.105-.083-.156-.125-.224-.249-.47-.463-.719-.688-.041-.05-.083-.107-.125-.156-.051-.044-.104-.082-.156-.125-.226-.252-.467-.492-.719-.719-.041-.05-.083-.107-.125-.156-.051-.044-.104-.082-.156-.125-.226-.252-.467-.492-.719-.719-.384-.465-.816-.897-1.281-1.281-.226-.252-.467-.493-.719-.719-.043-.053-.081-.105-.125-.156-.049-.042-.106-.084-.156-.125-.224-.249-.438-.495-.688-.719-.042-.051-.082-.106-.125-.156-.05-.043-.105-.083-.156-.125-.314-.35-.637-.7-1-1-.221-.246-.473-.466-.719-.688-.041-.05-.083-.107-.125-.156-.051-.044-.104-.082-.156-.125-.226-.252-.467-.492-.719-.719-.384-.465-.816-.897-1.281-1.281-.226-.252-.467-.493-.719-.719-.043-.053-.081-.105-.125-.156-.049-.042-.106-.084-.156-.125-.224-.249-.438-.495-.688-.719-.042-.051-.082-.106-.125-.156-.05-.043-.105-.083-.156-.125-.226-.252-.467-.493-.719-.719-.042-.051-.082-.106-.125-.156-.05-.043-.105-.083-.156-.125-.224-.249-.47-.463-.719-.688-.041-.05-.083-.107-.125-.156-.051-.044-.104-.082-.156-.125-.226-.252-.467-.492-.719-.719-.384-.465-.816-.897-1.281-1.281-.226-.252-.467-.493-.719-.719-.043-.053-.081-.105-.125-.156-.049-.042-.106-.084-.156-.125-.226-.252-.467-.493-.719-.719-.043-.053-.081-.105-.125-.156-.049-.042-.106-.084-.156-.125-.224-.249-.438-.495-.688-.719-.042-.051-.082-.106-.125-.156-.05-.043-.105-.083-.156-.125-.224-.249-.47-.463-.719-.688-.041-.05-.083-.107-.125-.156-.051-.044-.104-.082-.156-.125-.226-.252-.467-.492-.719-.719-.041-.05-.083-.107-.125-.156-.051-.044-.104-.082-.156-.125-.226-.252-.467-.492-.719-.719-.384-.465-.816-.897-1.281-1.281-.226-.252-.467-.493-.719-.719-.043-.053-.081-.105-.125-.156-.049-.042-.106-.084-.156-.125-.224-.249-.438-.495-.688-.719-.042-.051-.082-.106-.125-.156-.05-.043-.105-.083-.156-.125-.224-.249-.47-.463-.719-.688-.041-.05-.083-.107-.125-.156-.051-.044-.104-.082-.156-.125-.226-.252-.467-.492-.719-.719-.041-.05-.083-.107-.125-.156-.051-.044-.104-.082-.156-.125-.226-.252-.467-.492-.719-.719-.384-.465-.816-.897-1.281-1.281-.226-.252-.467-.493-.719-.719-.043-.053-.081-.105-.125-.156-.049-.042-.106-.084-.156-.125-.224-.249-.438-.495-.688-.719-.042-.051-.082-.106-.125-.156-.05-.043-.105-.083-.156-.125-.226-.252-.467-.493-.719-.719-.042-.051-.082-.106-.125-.156-.05-.043-.105-.083-.156-.125-.224-.249-.47-.463-.719-.688-.041-.05-.083-.107-.125-.156-.051-.044-.104-.082-.156-.125-.226-.252-.467-.492-.719-.719-.384-.465-.816-.897-1.281-1.281-.226-.252-.467-.493-.719-.719-.043-.053-.081-.105-.125-.156-.049-.042-.106-.084-.156-.125-.226-.252-.467-.493-.719-.719-.043-.053-.081-.105-.125-.156-.049-.042-.106-.084-.156-.125-.224-.249-.438-.495-.688-.719-.042-.051-.082-.106-.125-.156-.05-.043-.105-.083-.156-.125-.224-.249-.47-.463-.719-.688-.041-.05-.083-.107-.125-.156-.051-.044-.104-.082-.156-.125-.226-.252-.467-.492-.719-.719-.384-.465-.816-.897-1.281-1.281-.226-.252-.467-.493-.719-.719-.043-.053-.081-.105-.125-.156-.049-.042-.106-.084-.156-.125-.226-.252-.467-.493-.719-.719-.043-.053-.081-.105-.125-.156-.049-.042-.106-.084-.156-.125-.224-.249-.438-.495-.688-.719-.042-.051-.082-.106-.125-.156-.05-.043-.105-.083-.156-.125-.224-.249-.47-.463-.719-.688-.041-.05-.083-.107-.125-.156-.051-.044-.104-.082-.156-.125-.226-.252-.467-.492-.719-.719-.041-.05-.083-.107-.125-.156-.051-.044-.104-.082-.156-.125-.226-.252-.467-.492-.719-.719-.384-.465-.816-.897-1.281-1.281-.226-.252-.467-.493-.719-.719-.043-.053-.081-.105-.125-.156-.049-.042-.106-.084-.156-.125-.224-.249-.438-.495-.688-.719-.042-.051-.082-.106-.125-.156-.05-.043-.105-.083-.156-.125-.314-.35-.637-.7-1-1-.221-.246-.473-.466-.719-.688-.041-.05-.083-.107-.125-.156-.051-.044-.104-.082-.156-.125-.226-.252-.467-.492-.719-.719-.384-.465-.816-.897-1.281-1.281-.226-.252-.467-.493-.719-.719-.043-.053-.081-.105-.125-.156-.049-.042-.106-.084-.156-.125-.224-.249-.438-.495-.688-.719-.042-.051-.082-.106-.125-.156-.05-.043-.105-.083-.156-.125-.226-.252-.467-.493-.719-.719-.042-.051-.082-.106-.125-.156-.05-.043-.105-.083-.156-.125-.224-.249-.47-.463-.719-.688-.041-.05-.083-.107-.125-.156-.051-.044-.104-.082-.156-.125-.226-.252-.467-.492-.719-.719-.384-.465-.816-.897-1.281-1.281-.226-.252-.467-.493-.719-.719-.043-.053-.081-.105-.125-.156-.049-.042-.106-.084-.156-.125-.226-.252-.467-.493-.719-.719-.043-.053-.081-.105-.125-.156-.049-.042-.106-.084-.156-.125-.224-.249-.438-.495-.688-.719-.042-.051-.082-.106-.125-.156-.05-.043-.105-.083-.156-.125-.224-.249-.47-.463-.719-.688-.041-.05-.083-.107-.125-.156-.051-.044-.104-.082-.156-.125-.226-.252-.467-.492-.719-.719-.341-.414-.719-.806-1.125-1.156-.35-.407-.742-.783-1.156-1.125-.226-.252-.467-.493-.719-.719-.043-.053-.081-.105-.125-.156-.049-.042-.106-.084-.156-.125-.224-.249-.438-.495-.688-.719-.042-.051-.082-.106-.125-.156-.05-.043-.105-.083-.156-.125-.224-.249-.47-.463-.719-.688-.041-.05-.083-.107-.125-.156-.051-.044-.104-.082-.156-.125-.226-.252-.467-.492-.719-.719-.041-.05-.083-.107-.125-.156-.051-.044-.104-.082-.156-.125-.226-.252-.467-.492-.719-.719-.384-.465-.816-.897-1.281-1.281-.226-.252-.467-.493-.719-.719-.043-.053-.081-.105-.125-.156-.049-.042-.106-.084-.156-.125-.224-.249-.438-.495-.688-.719-.042-.051-.082-.106-.125-.156-.05-.043-.105-.083-.156-.125-.226-.252-.467-.493-.719-.719-.042-.051-.082-.106-.125-.156-.05-.043-.105-.083-.156-.125-.224-.249-.47-.463-.719-.688-.041-.05-.083-.107-.125-.156-.051-.044-.104-.082-.156-.125-.226-.252-.467-.492-.719-.719-.384-.465-.816-.897-1.281-1.281-.226-.252-.467-.493-.719-.719-.043-.053-.081-.105-.125-.156-.049-.042-.106-.084-.156-.125-.226-.252-.467-.493-.719-.719-.043-.053-.081-.105-.125-.156-.049-.042-.106-.084-.156-.125-.224-.249-.438-.495-.688-.719-.042-.051-.082-.106-.125-.156-.05-.043-.105-.083-.156-.125-.224-.249-.47-.463-.719-.688-.041-.05-.083-.107-.125-.156-.051-.044-.104-.082-.156-.125-.226-.252-.467-.492-.719-.719-.384-.465-.816-.897-1.281-1.281-.226-.252-.467-.493-.719-.719-.043-.053-.081-.105-.125-.156-.049-.042-.106-.084-.156-.125-.226-.252-.467-.493-.719-.719-.043-.053-.081-.105-.125-.156-.049-.042-.106-.084-.156-.125-.224-.249-.438-.495-.688-.719-.042-.051-.082-.106-.125-.156-.05-.043-.105-.083-.156-.125-.224-.249-.47-.463-.719-.688-.041-.05-.083-.107-.125-.156-.051-.044-.104-.082-.156-.125-.226-.252-.467-.492-.719-.719-.041-.05-.083-.107-.125-.156-.051-.044-.104-.082-.156-.125-.226-.252-.467-.492-.719-.719-.384-.465-.816-.897-1.281-1.281-.226-.252-.467-.493-.719-.719-.043-.053-.081-.105-.125-.156-.049-.042-.106-.084-.156-.125-.224-.249-.438-.495-.688-.719-.042-.051-.082-.106-.125-.156-.05-.043-.105-.083-.156-.125-.314-.35-.637-.7-1-1-.221-.246-.473-.466-.719-.688-.041-.05-.083-.107-.125-.156-.051-.044-.104-.082-.156-.125-.226-.252-.467-.492-.719-.719-.384-.465-.816-.897-1.281-1.281-.226-.252-.467-.493-.719-.719-.043-.053-.081-.105-.125-.156-.049-.042-.106-.084-.156-.125-.224-.249-.438-.495-.688-.719-.042-.051-.082-.106-.125-.156-.05-.043-.105-.083-.156-.125-.226-.252-.467-.493-.719-.719-.042-.051-.082-.106-.125-.156-.05-.043-.105-.083-.156-.125-.224-.249-.47-.463-.719-.688-.041-.05-.083-.107-.125-.156-.051-.044-.104-.082-.156-.125-.226-.252-.467-.492-.719-.719-.384-.465-.816-.897-1.281-1.281-.226-.252-.467-.493-.719-.719-.043-.052-.081-.105-.125-.156-.049-.042-.106-.084-.156-.125-.226-.252-.467-.493-.719-.719-.043-.052-.081-.105-.125-.156-.049-.042-.106-.084-.156-.125-.224-.249-.438-.495-.688-.719-.042-.051-.082-.106-.125-.156-.05-.043-.105-.083-.156-.125-.224-.249-.47-.463-.719-.688-.041-.05-.083-.107-.125-.156-.051-.044-.104-.082-.156-.125-.226-.252-.467-.492-.719-.719-1.726-2.094-4.353-3.438-7.281-3.438h-16.625c-5.205 0-9.406 4.204-9.406 9.406v49c-.194-.191-.415-.358-.625-.531-.224-.249-.438-.495-.688-.719-.042-.051-.082-.106-.125-.156-.05-.043-.105-.083-.156-.125-.226-.252-.467-.493-.719-.719-.042-.051-.082-.106-.125-.156-.05-.043-.105-.083-.156-.125-.226-.252-.467-.493-.719-.719-.042-.051-.082-.106-.125-.156-.05-.043-.105-.083-.156-.125-.224-.249-.469-.463-.719-.688-.342-.414-.718-.806-1.125-1.156-.35-.407-.742-.783-1.156-1.125-.222-.246-.441-.497-.688-.719-.3-.363-.65-.685-1-1-.042-.051-.082-.106-.125-.156-.05-.043-.105-.083-.156-.125-.226-.252-.467-.493-.719-.719-.042-.051-.082-.106-.125-.156-.05-.043-.105-.083-.156-.125-.224-.249-.469-.463-.719-.688-.342-.414-.718-.806-1.125-1.156-.307-.356-.644-.693-1-1-.35-.407-.742-.783-1.156-1.125-.224-.249-.438-.495-.688-.719-.042-.051-.082-.106-.125-.156-.05-.043-.105-.083-.156-.125-.226-.252-.467-.493-.719-.719-.042-.051-.082-.106-.125-.156-.05-.043-.105-.083-.156-.125-.224-.249-.469-.463-.719-.688-.041-.05-.083-.107-.125-.156-.052-.044-.104-.082-.156-.125-.226-.252-.467-.492-.719-.719-.342-.414-.718-.806-1.125-1.156-.35-.407-.742-.783-1.156-1.125-.224-.249-.438-.495-.688-.719-.042-.051-.082-.106-.125-.156-.05-.043-.105-.083-.156-.125-.226-.252-.467-.493-.719-.719-.042-.051-.082-.106-.125-.156-.05-.043-.105-.083-.156-.125-.226-.252-.467-.493-.719-.719-.042-.051-.082-.106-.125-.156-.05-.043-.105-.083-.156-.125-.224-.249-.469-.463-.719-.688-.342-.414-.718-.806-1.125-1.156-.35-.407-.742-.783-1.156-1.125-.222-.246-.441-.497-.688-.719-.3-.363-.65-.685-1-1-.042-.051-.082-.106-.125-.156-.05-.043-.105-.083-.156-.125-.226-.252-.467-.493-.719-.719-.042-.051-.082-.106-.125-.156-.05-.043-.105-.083-.156-.125-.224-.249-.469-.463-.719-.688-.342-.414-.718-.806-1.125-1.156-.35-.407-.742-.783-1.156-1.125-.227-.252-.466-.493-.719-.719-.043-.053-.081-.105-.125-.156-.049-.042-.106-.084-.156-.125-.224-.249-.438-.495-.688-.719-.042-.051-.082-.106-.125-.156-.05-.043-.105-.083-.156-.125-.226-.252-.467-.493-.719-.719-.042-.051-.082-.106-.125-.156-.05-.043-.105-.083-.156-.125-.224-.249-.469-.463-.719-.688-.342-.414-.718-.806-1.125-1.156-.307-.356-.644-.693-1-1-.35-.407-.742-.783-1.156-1.125-.224-.249-.438-.495-.688-.719-.042-.051-.082-.106-.125-.156-.05-.043-.105-.083-.156-.125-.226-.252-.467-.493-.719-.719-.042-.051-.082-.106-.125-.156-.05-.043-.105-.083-.156-.125-.315-.35-.637-.7-1-1-.222-.246-.473-.466-.719-.688-.342-.414-.718-.806-1.125-1.156-.35-.407-.742-.783-1.156-1.125-.224-.249-.438-.495-.688-.719-.042-.051-.082-.106-.125-.156-.05-.043-.105-.083-.156-.125-.226-.252-.467-.493-.719-.719-.042-.051-.082-.106-.125-.156-.05-.043-.105-.083-.156-.125-.226-.252-.467-.493-.719-.719-.042-.051-.082-.106-.125-.156-.05-.043-.105-.083-.156-.125-.224-.249-.469-.463-.719-.688-.342-.414-.718-.806-1.125-1.156-.35-.407-.742-.783-1.156-1.125-.222-.246-.441-.497-.688-.719-.3-.363-.65-.686-1-1-.042-.051-.082-.106-.125-.156-.05-.043-.105-.083-.156-.125-.226-.252-.467-.493-.719-.719-.042-.051-.082-.106-.125-.156-.05-.043-.105-.083-.156-.125-.224-.249-.469-.463-.719-.688-.342-.414-.718-.806-1.125-1.156-1.728-2.01-4.3-3.281-7.156-3.281h-16.188" fill-opacity=".235" transform="translate(0 540.36)"/><g fill-rule="evenodd"><path d="m256 541.36c-140.83 0-255 114.17-255 255s114.17 255 255 255 255-114.17 255-255-114.17-255-255-255m8.827 44.931c120.9 0 218.9 98 218.9 218.9s-98 218.9-218.9 218.9-218.93-98-218.93-218.9 98.03-218.9 218.93-218.9" fill-opacity=".067"/><g fill-opacity=".129"><path d="m256 544.79c-138.94 0-251.57 112.63-251.57 251.57s112.63 251.54 251.57 251.54 251.57-112.6 251.57-251.54-112.63-251.57-251.57-251.57m5.885 38.556c120.9 0 218.9 98 218.9 218.9s-98 218.9-218.9 218.9-218.93-98-218.93-218.9 98.03-218.9 218.93-218.9"/><path d="m256 548.72c-136.77 0-247.64 110.87-247.64 247.64s110.87 247.64 247.64 247.64 247.64-110.87 247.64-247.64-110.87-247.64-247.64-247.64m2.942 31.691c120.9 0 218.9 98 218.9 218.9s-98 218.9-218.9 218.9-218.93-98-218.93-218.9 98.03-218.9 218.93-218.9"/></g><path d="m253.04 548.22c-135.42 0-245.19 109.78-245.19 245.19 0 135.42 109.78 245.19 245.19 245.19 135.42 0 245.19-109.78 245.19-245.19 0-135.42-109.78-245.19-245.19-245.19zm0 26.297c120.9 0 218.9 98 218.9 218.9s-98 218.9-218.9 218.9-218.93-98-218.93-218.9 98.03-218.9 218.93-218.9z" fill="#fff" stroke="#000" stroke-opacity=".31" stroke-width="4.904"/></g><text x="729.64001" y="771.71997"><tspan x="729.64001" y="771.71997"/></text><text transform="scale(4.0128 .2492)" x="378.91" y="2747.6399"/><text x="1310.91" y="691.71997"><tspan x="1310.91" y="691.71997"/></text><text transform="scale(4.0128 .2492)" x="523.76001" y="2426.6001"/><text x="239.33" y="510.45999"><tspan x="239.33" y="510.45999"/></text><text transform="scale(4.0128 .2492)" x="256.72" y="1699.25"/><text x="1337.38" y="293.98999"><tspan x="1337.38" y="293.98999"/></text><text transform="scale(4.0128 .2492)" x="530.35999" y="830.57001"/><text x="1918.65" y="213.99001"><tspan x="1918.65" y="213.99001"/></text><text transform="scale(4.0128 .2492)" x="675.21002" y="509.54001"/><text x="1529.53" y="-258.41"><tspan x="1529.53" y="-258.41"/></text><text transform="scale(4.0128 .2492)" x="578.23999" y="-1386.12"/><text x="2110.79" y="-338.42001"><tspan x="2110.79" y="-338.42001"/></text><text transform="scale(4.0128 .2492)" x="723.09003" y="-1707.16"/><text x="277.98999" y="1076.3"><tspan x="277.98999" y="1076.3"/></text><path d="m360.5 915.71c0 11.816-9.609 21.428-21.424 21.428h-166.14c-11.826 0-21.431-9.616-21.431-21.428 0-1.146.212-2.284.62-3.356l57.55-150.81c.02-.239.054-.478.084-.714v-86.42h-6.799c-5.205 0-9.417-4.218-9.417-9.42s4.211-9.42 9.417-9.42h16.216c5.205 0 9.424 4.218 9.424 9.42v96.56c0 .542-.047 1.078-.138 1.614 0 1.149-.276 2.695-.691 3.763l-34.662 90.84h124.98l-35.811-90.73c-.387-.977-.606-2.01-.65-3.056l-.077-.569c-.04-.371-.061-.741-.061-1.112v-97.31c0-5.202 4.211-9.42 9.417-9.42h16.64c5.205 0 9.417 4.218 9.417 9.42s-4.211 9.42-9.417 9.42h-7.227v87.04l59.52 150.8c.435 1.105.66 2.274.66 3.46m-122.74-78.93c0-3.895 3.164-7.07 7.06-7.07 3.898 0 7.07 3.167 7.07 7.07 0 3.891-3.17 7.07-7.07 7.07-3.898 0-7.06-3.174-7.06-7.07m4.703 0c0 1.297 1.058 2.352 2.355 2.352s2.355-1.055 2.355-2.352c0-1.301-1.058-2.355-2.355-2.355s-2.355 1.055-2.355 2.355m31.791-7.07c0-3.895 3.17-7.07 7.07-7.07 3.898 0 7.06 3.167 7.06 7.07 0 3.891-3.164 7.07-7.06 7.07-3.898 0-7.07-3.17-7.07-7.07m4.71 0c0 1.297 1.058 2.352 2.355 2.352s2.355-1.055 2.355-2.352c0-1.3-1.058-2.355-2.355-2.355s-2.355 1.058-2.355 2.355m-24.339-23.547c0-5.411 4.403-9.814 9.818-9.814 5.407 0 9.811 4.403 9.811 9.814 0 5.407-4.403 9.814-9.811 9.814-5.418 0-9.818-4.403-9.818-9.814m4.71 0c0 2.813 2.291 5.104 5.108 5.104 2.81 0 5.108-2.291 5.108-5.104 0-2.817-2.298-5.108-5.108-5.108-2.817 0-5.108 2.291-5.108 5.108" fill="#fff"/></g></svg>