<svg viewBox="0 0 64 64" xmlns="http://www.w3.org/2000/svg"><circle cx="27" cy="25" fill="#edebdc" r="23"/><circle cx="37.5" cy="31.5" fill="#c1dbdc" r="19.5"/><circle cx="51.509" cy="12.6" fill="#b5a19c" r="10.8" stroke="#4c241d" stroke-linecap="round" stroke-linejoin="round" stroke-width="2"/><circle cx="47.709" cy="12.6" fill="#e7d1c4" r="3.6" stroke="#4c241d" stroke-linecap="round" stroke-linejoin="round" stroke-width="2"/><circle cx="56.509" cy="14.8" fill="#e7d1c4" r="1.8" stroke="#4c241d" stroke-linecap="round" stroke-linejoin="round" stroke-width="2"/><path d="m54.926 2.361a10.7 10.7 0 0 0 -7.9.423 4.184 4.184 0 0 0 7.9-.423z" fill="#e7d1c4" stroke="#4c241d" stroke-linecap="round" stroke-linejoin="round" stroke-width="2"/><circle cx="56" cy="9" fill="#4c241d" r="1"/><path d="m13.884 22.637-3.681 3.667" fill="none" stroke="#4c241d" stroke-linecap="round" stroke-linejoin="round" stroke-width="2"/><path d="m36 57 5-14v-6l1 1 3.424-.856c2.689-.672 5.576-3.089 5.576-5.861v-3.283h-8l-2.752-1.651a9.461 9.461 0 0 0 -4.87-1.349h-5.378c-2.761 0-5 3.134-5 7v5a27.219 27.219 0 0 1 -3.689 5.311l-2.869 3.16c-1.78 1.871-3.906 3.993-6.442 6.529z" fill="#bf7e68" stroke="#4c241d" stroke-linecap="round" stroke-linejoin="round" stroke-width="2"/><path d="m10.21 22.63 3.667 3.681" fill="none" stroke="#4c241d" stroke-linecap="round" stroke-linejoin="round" stroke-width="2"/><circle cx="38.5" cy="30.5" fill="#4c241d" r="1.5"/><path d="m38 58 2.923-14.785-8.923 1.785s-4.492-3.369-8.209-5.957a33.179 33.179 0 0 1 -2.479 3.268l-2.87 3.16c-1.78 1.871-3.906 3.993-6.442 6.529 0 0-4 3-4 6z" fill="#fc8c29" stroke="#4c241d" stroke-linecap="round" stroke-linejoin="round" stroke-width="2"/><circle cx="17.5" cy="8.5" fill="#4c241d" r="1.5"/><g stroke-linecap="round" stroke-linejoin="round" stroke-width="2"><path d="m33 31v4a4 4 0 0 1 -4 4 4 4 0 0 1 -4-4" fill="none" stroke="#4c241d"/><circle cx="37.5" cy="31.5" fill="none" r="19.5" stroke="#4c241d"/><path d="m37.5 16a15.431 15.431 0 0 0 -8.5 2.537" fill="none" stroke="#fff"/><path d="m14 58h-8l3.166-15.037a3.817 3.817 0 0 1 4.741-2.9l7.093 1.937z" fill="#fff" stroke="#4c241d"/><path d="m58 58h-55" fill="none" stroke="#4c241d"/><path d="m31 50-3 8" fill="none" stroke="#4c241d"/></g><circle cx="34" cy="54" fill="#4c241d" r="1"/></svg>